<svg id="Layer_1" data-name="Layer 1" xmlns="http://www.w3.org/2000/svg" viewBox="0 0 1174.59 310.87">
  <path fill="#ffffff" d="M251.5,193.71v-76.64h14.75l.97,10.05h.49c4.86-7.45,13.94-11.99,23.66-11.99s18.15,4.7,22.36,13.77h.65c5.02-8.26,14.91-13.77,26.09-13.77,15.88,0,26.57,10.86,26.57,30.3v48.29h-16.2v-43.1c0-14.91-5.51-21.07-15.07-21.07-10.86,0-18.31,7.94-18.31,22.36v41.81h-16.2v-43.1c0-15.07-5.35-21.07-14.91-21.07-10.86,0-18.63,7.78-18.63,22.36v41.81h-16.2Z"></path>
  <path fill="#ffffff" d="M420.58,115.12c-22.85,0-39.71,16.53-39.71,40.19s16.85,40.34,39.71,40.34,39.69-16.53,39.69-40.34-16.85-40.19-39.69-40.19ZM420.58,181.55c-13.46,0-23.18-10.37-23.18-26.25s9.72-26.09,23.18-26.09,23.17,10.38,23.17,26.09-9.72,26.25-23.17,26.25Z"></path>
  <path fill="#ffffff" d="M474.7,193.71v-76.64h14.75l.97,10.05h.49c4.86-7.45,13.94-11.99,24.63-11.99,16.53,0,27.38,10.86,27.38,30.3v48.29h-16.2v-42.62c0-15.72-5.83-21.55-16.2-21.55-11.83,0-19.61,7.45-19.61,22.52v41.64h-16.2Z"></path>
  <path fill="#ffffff" d="M633.08,152.72c0-22.85-15.23-37.6-36.62-37.6-22.69,0-39.71,16.69-39.71,40.68s16.37,39.85,39.54,39.85c17.67,0,31.59-9.4,35.81-25.11h-15.39c-3.57,7.29-10.86,11.34-19.93,11.34-12.8,0-22.36-7.61-23.66-22.69h59.46c.33-2.27.49-4.21.49-6.47ZM573.78,147.36c2.59-12.31,11.18-18.95,22.69-18.95,10.85,0,18.63,5.99,20.41,18.95h-43.1Z"></path>
  <polygon fill="#ffffff" points="652.01 230 666.43 194.03 635.64 117.07 652.98 117.07 674.53 174.26 675.02 174.26 697.05 117.07 713.91 117.07 668.7 230 652.01 230"></polygon>
  <path fill="#ffffff" d="M722.8,193.71v-76.64h14.75l.97,10.05h.49c4.86-7.45,13.94-11.99,23.66-11.99s18.15,4.7,22.36,13.77h.65c5.02-8.26,14.91-13.77,26.09-13.77,15.88,0,26.57,10.86,26.57,30.3v48.29h-16.2v-43.1c0-14.91-5.51-21.07-15.07-21.07-10.86,0-18.31,7.94-18.31,22.36v41.81h-16.2v-43.1c0-15.07-5.35-21.07-14.91-21.07-10.86,0-18.63,7.78-18.63,22.36v41.81h-16.2Z"></path>
  <rect fill="#ffffff" x="856.87" y="117.07" width="16.2" height="76.64"></rect>
  <path fill="#ffffff" d="M854.28,93.41c0-6.16,4.86-10.69,10.69-10.69s10.86,4.54,10.86,10.69-4.86,10.69-10.86,10.69-10.69-4.54-10.69-10.69h0Z"></path>
  <path fill="#ffffff" d="M892.36,193.71v-76.64h14.75l.97,10.05h.49c4.86-7.45,13.94-11.99,24.63-11.99,16.53,0,27.38,10.86,27.38,30.3v48.29h-16.2v-42.62c0-15.72-5.83-21.55-16.2-21.55-11.83,0-19.61,7.45-19.61,22.52v41.64h-16.2Z"></path>
  <path fill="#ffffff" d="M1035.83,80.28v46.5h-.48c-4.38-7.12-14.11-11.66-24.63-11.66-20.26,0-35.98,16.37-35.98,40.19s15.56,40.34,35.98,40.34c11.17,0,21.06-4.86,25.28-11.99h.48l.97,10.04h14.59v-113.43h-16.2ZM1013.79,181.4c-13.45,0-22.52-9.73-22.52-26.09s9.07-26.09,22.52-26.09,22.69,9.89,22.69,26.09-8.91,26.09-22.69,26.09Z"></path>
  <path fill="#3C7AA8" d="M177.61,102.92c11.1,0,20.11,9,20.11,20.11,0,1.31-.13,2.59-.37,3.83-1.99-.42-4.05-.64-6.16-.64-10.41,0-19.57,5.35-24.88,13.44-5.31-3.62-8.8-9.71-8.8-16.63,0-11.1,9-20.11,20.11-20.11"></path>
  <path fill="#3C7AA8" d="M133.2,102.92c-11.1,0-20.11,9-20.11,20.11,0,1.31.13,2.59.37,3.83,1.99-.42,4.05-.64,6.16-.64,10.41,0,19.57,5.35,24.89,13.44,5.31-3.62,8.8-9.71,8.8-16.63,0-11.1-9-20.11-20.11-20.11"></path>
  <path fill="#1D4A75" d="M177.61,205.75c11.1,0,20.11-9,20.11-20.11,0-4.65-1.58-8.93-4.23-12.33l-35.99-35.99v48.32c0,11.1,9,20.11,20.11,20.11"></path>
  <path fill="#1D4A75" d="M133.2,205.75c-11.1,0-20.11-9-20.11-20.11,0-4.65,1.58-8.93,4.23-12.33l35.99-35.99v48.32c0,11.1-9,20.11-20.11,20.11"></path>
  <path fill="#5298BF" d="M191.18,130.3c14.18,0,25.67,11.49,25.67,25.67,0,10.68-6.52,19.84-15.8,23.7-.83-3.27-2.33-6.28-4.34-8.87l-.16-.2-27.55-27.55c4.45-7.63,12.72-12.75,22.19-12.75"></path>
  <path fill="#5298BF" d="M119.62,130.3c-14.18,0-25.67,11.49-25.67,25.67,0,10.68,6.52,19.84,15.8,23.7.83-3.27,2.33-6.28,4.34-8.87l.16-.2,27.55-27.55c-4.45-7.63-12.72-12.75-22.19-12.75"></path>
</svg>